<svg width="42" height="32" viewBox="0 0 42 32" fill="none" xmlns="http://www.w3.org/2000/svg">
<path d="M18.7242 2.29734C15.3995 3.15175 12.7167 5.68274 11.8938 8.72959C11.7128 9.43891 11.6469 10.5674 11.6469 13.1951V16.7095H7.4664C5.16217 16.7095 3.17066 16.7579 3.02253 16.8061C2.62752 16.9513 2.62752 20.4979 3.02253 20.6429C3.17066 20.6913 5.16217 20.7397 7.4664 20.7397H11.6469V24.6893V28.6551L13.6713 28.6067L15.6793 28.5583L15.7287 24.6732L15.7616 20.7881L19.5965 20.6913C21.6868 20.6429 23.7441 20.514 24.1556 20.4172C25.7026 20.0303 26.9865 19.2727 28.2702 18.0152C30.3112 16.0163 31.1011 14.0979 31.0847 11.2445C31.0682 8.60062 30.2618 6.68223 28.369 4.84445C27.0852 3.60314 25.5217 2.71648 23.7441 2.28121C22.5262 1.97492 19.9257 1.97492 18.7242 2.29734ZM23.8593 6.44042C24.9456 6.95629 26.18 8.21372 26.6573 9.24546C27.1346 10.2933 27.1181 12.115 26.6408 13.3402C25.9331 15.1619 24.1556 16.4999 22.2793 16.6449C21.8184 16.6773 20.1561 16.7417 18.6089 16.7739L15.7616 16.8545V13.3563C15.7616 9.34219 15.8274 9.08426 17.1935 7.66561C18.4937 6.29533 19.5142 5.89231 21.5386 5.95679C22.6743 5.98903 23.1186 6.08576 23.8593 6.44042Z" fill="#FF6B3D"/>
<path fill-rule="evenodd" clip-rule="evenodd" d="M33.0046 15.8088C33.3529 14.8031 33.5233 13.7646 33.5191 12.7401H38.0656C38.066 13.4148 38.0151 14.0907 37.9137 14.7621C37.7884 15.5921 37.586 16.4152 37.3078 17.2201C36.4647 19.6594 34.9257 21.9321 32.7281 23.7276L32.717 23.7367L32.7072 23.7447C29.9706 25.9724 26.681 27.0826 23.4504 27.1156V22.6599C25.6279 22.6337 27.8815 21.8832 29.8135 20.3077L29.8233 20.2998L29.83 20.2942C30.2985 19.9108 30.7216 19.5001 31.0997 19.0681C31.9719 18.0718 32.6052 16.9619 33.0046 15.8088Z" fill="#FF6B3D"/>
</svg>
