<svg width="14" height="18" viewBox="0 0 14 18" fill="none" xmlns="http://www.w3.org/2000/svg">
<path d="M0.321023 18V0.545454H7.53125C8.83807 0.545454 9.96591 0.801136 10.9148 1.3125C11.8693 1.81818 12.6051 2.52557 13.1222 3.43466C13.6392 4.33807 13.8977 5.3892 13.8977 6.58807C13.8977 7.79261 13.6335 8.84659 13.1051 9.75C12.5824 10.6477 11.8352 11.3437 10.8636 11.8381C9.89205 12.3324 8.73864 12.5795 7.40341 12.5795H2.95455V9.25568H6.61932C7.25568 9.25568 7.78693 9.14489 8.21307 8.9233C8.64489 8.7017 8.97159 8.39205 9.19318 7.99432C9.41477 7.59091 9.52557 7.12216 9.52557 6.58807C9.52557 6.04829 9.41477 5.58239 9.19318 5.19034C8.97159 4.79261 8.64489 4.4858 8.21307 4.26989C7.78125 4.05398 7.25 3.94602 6.61932 3.94602H4.53977V18H0.321023Z" fill="#FF6B3D"/>
</svg>
